<mxfile host="app.diagrams.net" modified="2023-11-27T12:16:44.621Z" agent="Mozilla/5.0 (Windows NT 10.0; Win64; x64) AppleWebKit/537.36 (KHTML, like Gecko) Chrome/119.0.0.0 Safari/537.36 Edg/119.0.0.0" etag="Gxchu5c9JZkm7vXq3pzW" version="22.1.4" type="github">
  <diagram id="C5RBs43oDa-KdzZeNtuy" name="Page-1">
    <mxGraphModel dx="1015" dy="543" grid="1" gridSize="1" guides="1" tooltips="1" connect="1" arrows="1" fold="1" page="1" pageScale="1" pageWidth="827" pageHeight="1169" math="0" shadow="0">
      <root>
        <mxCell id="WIyWlLk6GJQsqaUBKTNV-0" />
        <mxCell id="WIyWlLk6GJQsqaUBKTNV-1" parent="WIyWlLk6GJQsqaUBKTNV-0" />
        <mxCell id="IcX0CtYrrcFUlrH8vi67-0" value="" style="rounded=0;html=1;jettySize=auto;orthogonalLoop=1;fontSize=11;endArrow=classicThin;endFill=1;endSize=8;strokeWidth=1;shadow=0;labelBackgroundColor=none;edgeStyle=orthogonalEdgeStyle;movable=1;resizable=1;rotatable=1;deletable=1;editable=1;locked=0;connectable=1;entryX=0.5;entryY=0;entryDx=0;entryDy=0;" parent="WIyWlLk6GJQsqaUBKTNV-1" source="IcX0CtYrrcFUlrH8vi67-1" target="IcX0CtYrrcFUlrH8vi67-3" edge="1">
          <mxGeometry relative="1" as="geometry">
            <mxPoint x="188.5" y="116" as="targetPoint" />
          </mxGeometry>
        </mxCell>
        <mxCell id="IcX0CtYrrcFUlrH8vi67-1" value="开始" style="rounded=1;whiteSpace=wrap;html=1;fontSize=12;glass=0;strokeWidth=1;shadow=0;fillColor=#eeeeee;strokeColor=#36393d;" parent="WIyWlLk6GJQsqaUBKTNV-1" vertex="1">
          <mxGeometry x="128.5" y="42" width="120" height="40" as="geometry" />
        </mxCell>
        <mxCell id="IcX0CtYrrcFUlrH8vi67-2" value="" style="edgeStyle=orthogonalEdgeStyle;rounded=0;orthogonalLoop=1;jettySize=auto;html=1;" parent="WIyWlLk6GJQsqaUBKTNV-1" source="IcX0CtYrrcFUlrH8vi67-3" edge="1">
          <mxGeometry relative="1" as="geometry">
            <mxPoint x="188.5" y="204" as="targetPoint" />
          </mxGeometry>
        </mxCell>
        <mxCell id="IcX0CtYrrcFUlrH8vi67-3" value="获得请求数据" style="rounded=0;whiteSpace=wrap;html=1;fillColor=#dae8fc;strokeColor=#6c8ebf;" parent="WIyWlLk6GJQsqaUBKTNV-1" vertex="1">
          <mxGeometry x="126" y="122" width="125" height="40" as="geometry" />
        </mxCell>
        <mxCell id="IcX0CtYrrcFUlrH8vi67-22" value="" style="edgeStyle=orthogonalEdgeStyle;rounded=0;orthogonalLoop=1;jettySize=auto;html=1;" parent="WIyWlLk6GJQsqaUBKTNV-1" source="IcX0CtYrrcFUlrH8vi67-17" target="IcX0CtYrrcFUlrH8vi67-18" edge="1">
          <mxGeometry relative="1" as="geometry" />
        </mxCell>
        <mxCell id="IcX0CtYrrcFUlrH8vi67-17" value="获得数据首行" style="rounded=0;whiteSpace=wrap;html=1;fillColor=#dae8fc;strokeColor=#6c8ebf;" parent="WIyWlLk6GJQsqaUBKTNV-1" vertex="1">
          <mxGeometry x="126.5" y="320" width="125" height="40" as="geometry" />
        </mxCell>
        <mxCell id="IcX0CtYrrcFUlrH8vi67-25" value="" style="edgeStyle=orthogonalEdgeStyle;rounded=0;orthogonalLoop=1;jettySize=auto;html=1;" parent="WIyWlLk6GJQsqaUBKTNV-1" source="IcX0CtYrrcFUlrH8vi67-18" target="IcX0CtYrrcFUlrH8vi67-24" edge="1">
          <mxGeometry relative="1" as="geometry" />
        </mxCell>
        <mxCell id="IcX0CtYrrcFUlrH8vi67-18" value="将首行数据&lt;br&gt;以空格拆分" style="rounded=0;whiteSpace=wrap;html=1;fillColor=#dae8fc;strokeColor=#6c8ebf;" parent="WIyWlLk6GJQsqaUBKTNV-1" vertex="1">
          <mxGeometry x="126.5" y="403" width="125" height="40" as="geometry" />
        </mxCell>
        <mxCell id="IcX0CtYrrcFUlrH8vi67-21" value="" style="edgeStyle=orthogonalEdgeStyle;rounded=0;orthogonalLoop=1;jettySize=auto;html=1;" parent="WIyWlLk6GJQsqaUBKTNV-1" source="IcX0CtYrrcFUlrH8vi67-19" target="IcX0CtYrrcFUlrH8vi67-17" edge="1">
          <mxGeometry relative="1" as="geometry" />
        </mxCell>
        <mxCell id="IcX0CtYrrcFUlrH8vi67-28" value="" style="edgeStyle=orthogonalEdgeStyle;rounded=0;orthogonalLoop=1;jettySize=auto;html=1;endArrow=none;endFill=0;" parent="WIyWlLk6GJQsqaUBKTNV-1" source="IcX0CtYrrcFUlrH8vi67-19" edge="1">
          <mxGeometry relative="1" as="geometry">
            <mxPoint x="189" y="466" as="targetPoint" />
            <Array as="points">
              <mxPoint x="296" y="241" />
              <mxPoint x="296" y="466" />
            </Array>
          </mxGeometry>
        </mxCell>
        <mxCell id="IcX0CtYrrcFUlrH8vi67-19" value="请求数据是否&lt;br&gt;以GET开始？" style="rhombus;whiteSpace=wrap;html=1;shadow=0;fontFamily=Helvetica;fontSize=12;align=center;strokeWidth=1;spacing=6;spacingTop=-4;fillColor=#d5e8d4;strokeColor=#82b366;" parent="WIyWlLk6GJQsqaUBKTNV-1" vertex="1">
          <mxGeometry x="138.38" y="206" width="100.25" height="70" as="geometry" />
        </mxCell>
        <mxCell id="IcX0CtYrrcFUlrH8vi67-20" value="&lt;font style=&quot;font-size: 10px;&quot;&gt;Y&lt;/font&gt;" style="text;html=1;strokeColor=none;fillColor=default;align=center;verticalAlign=middle;whiteSpace=wrap;rounded=0;" parent="WIyWlLk6GJQsqaUBKTNV-1" vertex="1">
          <mxGeometry x="179" y="285" width="20" height="18" as="geometry" />
        </mxCell>
        <mxCell id="IcX0CtYrrcFUlrH8vi67-23" value="结束" style="rounded=1;whiteSpace=wrap;html=1;fontSize=12;glass=0;strokeWidth=1;shadow=0;fillColor=#eeeeee;strokeColor=#36393d;" parent="WIyWlLk6GJQsqaUBKTNV-1" vertex="1">
          <mxGeometry x="128.5" y="570" width="120" height="40" as="geometry" />
        </mxCell>
        <mxCell id="IcX0CtYrrcFUlrH8vi67-26" value="" style="edgeStyle=orthogonalEdgeStyle;rounded=0;orthogonalLoop=1;jettySize=auto;html=1;" parent="WIyWlLk6GJQsqaUBKTNV-1" source="IcX0CtYrrcFUlrH8vi67-24" target="IcX0CtYrrcFUlrH8vi67-23" edge="1">
          <mxGeometry relative="1" as="geometry" />
        </mxCell>
        <mxCell id="IcX0CtYrrcFUlrH8vi67-24" value="返回解析后的数据" style="rounded=0;whiteSpace=wrap;html=1;fillColor=#dae8fc;strokeColor=#6c8ebf;" parent="WIyWlLk6GJQsqaUBKTNV-1" vertex="1">
          <mxGeometry x="126.5" y="487" width="125" height="40" as="geometry" />
        </mxCell>
        <mxCell id="IcX0CtYrrcFUlrH8vi67-29" value="&lt;font style=&quot;font-size: 10px;&quot;&gt;N&lt;/font&gt;" style="text;html=1;strokeColor=none;fillColor=default;align=center;verticalAlign=middle;whiteSpace=wrap;rounded=0;" parent="WIyWlLk6GJQsqaUBKTNV-1" vertex="1">
          <mxGeometry x="286" y="354" width="20" height="18" as="geometry" />
        </mxCell>
      </root>
    </mxGraphModel>
  </diagram>
</mxfile>
